<mxfile host="app.diagrams.net" agent="Mozilla/5.0 (Windows NT 10.0; Win64; x64) AppleWebKit/537.36 (KHTML, like Gecko) Chrome/133.0.0.0 Safari/537.36 Edg/133.0.0.0" version="26.0.11">
  <diagram name="Page-1" id="TJu2bCbRz4ZYLwr56SL0">
    <mxGraphModel dx="786" dy="467" grid="1" gridSize="10" guides="1" tooltips="1" connect="1" arrows="1" fold="1" page="1" pageScale="1" pageWidth="850" pageHeight="1100" math="0" shadow="0">
      <root>
        <mxCell id="0" />
        <mxCell id="1" parent="0" />
        <mxCell id="l-R7N4XkeBFulMvIP0YO-26" value="" style="edgeStyle=orthogonalEdgeStyle;rounded=0;orthogonalLoop=1;jettySize=auto;html=1;" edge="1" parent="1" source="l-R7N4XkeBFulMvIP0YO-2" target="l-R7N4XkeBFulMvIP0YO-3">
          <mxGeometry relative="1" as="geometry" />
        </mxCell>
        <mxCell id="l-R7N4XkeBFulMvIP0YO-2" value="Actor" style="shape=umlActor;verticalLabelPosition=bottom;verticalAlign=top;html=1;outlineConnect=0;" vertex="1" parent="1">
          <mxGeometry x="60" y="120" width="30" height="60" as="geometry" />
        </mxCell>
        <mxCell id="l-R7N4XkeBFulMvIP0YO-8" value="" style="edgeStyle=orthogonalEdgeStyle;rounded=0;orthogonalLoop=1;jettySize=auto;html=1;" edge="1" parent="1" source="l-R7N4XkeBFulMvIP0YO-3" target="l-R7N4XkeBFulMvIP0YO-7">
          <mxGeometry relative="1" as="geometry">
            <Array as="points">
              <mxPoint x="250" y="190" />
              <mxPoint x="250" y="190" />
            </Array>
          </mxGeometry>
        </mxCell>
        <mxCell id="l-R7N4XkeBFulMvIP0YO-3" value="Web UI" style="rounded=0;whiteSpace=wrap;html=1;fillColor=#f5f5f5;fontColor=#333333;strokeColor=#666666;" vertex="1" parent="1">
          <mxGeometry x="190" y="120" width="120" height="60" as="geometry" />
        </mxCell>
        <mxCell id="l-R7N4XkeBFulMvIP0YO-19" style="edgeStyle=orthogonalEdgeStyle;rounded=0;orthogonalLoop=1;jettySize=auto;html=1;entryX=0.04;entryY=0.602;entryDx=0;entryDy=0;entryPerimeter=0;exitX=1;exitY=0.522;exitDx=0;exitDy=0;exitPerimeter=0;" edge="1" parent="1" source="l-R7N4XkeBFulMvIP0YO-7" target="l-R7N4XkeBFulMvIP0YO-18">
          <mxGeometry relative="1" as="geometry">
            <mxPoint x="540" y="335" as="targetPoint" />
          </mxGeometry>
        </mxCell>
        <mxCell id="l-R7N4XkeBFulMvIP0YO-7" value="" style="rounded=0;whiteSpace=wrap;html=1;fillColor=#e1d5e7;strokeColor=#9673a6;" vertex="1" parent="1">
          <mxGeometry x="120" y="220" width="280" height="230" as="geometry" />
        </mxCell>
        <mxCell id="l-R7N4XkeBFulMvIP0YO-9" value="" style="endArrow=none;html=1;rounded=0;exitX=0;exitY=0.25;exitDx=0;exitDy=0;entryX=1;entryY=0.25;entryDx=0;entryDy=0;" edge="1" parent="1">
          <mxGeometry width="50" height="50" relative="1" as="geometry">
            <mxPoint x="120" y="254.5" as="sourcePoint" />
            <mxPoint x="400" y="254.5" as="targetPoint" />
          </mxGeometry>
        </mxCell>
        <mxCell id="l-R7N4XkeBFulMvIP0YO-10" value="&lt;b&gt;&lt;font style=&quot;font-size: 18px;&quot;&gt;Copilot Orchestrator&lt;/font&gt;&lt;/b&gt;" style="text;html=1;align=center;verticalAlign=middle;whiteSpace=wrap;rounded=0;" vertex="1" parent="1">
          <mxGeometry x="120" y="223" width="280" height="30" as="geometry" />
        </mxCell>
        <mxCell id="l-R7N4XkeBFulMvIP0YO-11" value="" style="rounded=1;whiteSpace=wrap;html=1;fillColor=#ffe6cc;strokeColor=#d79b00;" vertex="1" parent="1">
          <mxGeometry x="130" y="260" width="260" height="180" as="geometry" />
        </mxCell>
        <mxCell id="l-R7N4XkeBFulMvIP0YO-12" value="" style="endArrow=none;html=1;rounded=0;exitX=0;exitY=0.25;exitDx=0;exitDy=0;entryX=1;entryY=0.25;entryDx=0;entryDy=0;" edge="1" parent="1">
          <mxGeometry width="50" height="50" relative="1" as="geometry">
            <mxPoint x="130" y="291.5" as="sourcePoint" />
            <mxPoint x="390" y="291.5" as="targetPoint" />
          </mxGeometry>
        </mxCell>
        <mxCell id="l-R7N4XkeBFulMvIP0YO-14" value="&lt;span&gt;&lt;font&gt;Copilot Routing Controller&lt;/font&gt;&lt;/span&gt;" style="text;html=1;align=center;verticalAlign=middle;whiteSpace=wrap;rounded=0;fontStyle=0;fontSize=11;" vertex="1" parent="1">
          <mxGeometry x="120" y="270" width="280" height="20" as="geometry" />
        </mxCell>
        <mxCell id="l-R7N4XkeBFulMvIP0YO-17" value="" style="edgeStyle=orthogonalEdgeStyle;rounded=0;orthogonalLoop=1;jettySize=auto;html=1;exitX=1;exitY=0.5;exitDx=0;exitDy=0;" edge="1" parent="1" source="l-R7N4XkeBFulMvIP0YO-15" target="l-R7N4XkeBFulMvIP0YO-16">
          <mxGeometry relative="1" as="geometry" />
        </mxCell>
        <mxCell id="l-R7N4XkeBFulMvIP0YO-15" value="Route Request" style="whiteSpace=wrap;html=1;aspect=fixed;fillColor=#d5e8d4;strokeColor=#82b366;" vertex="1" parent="1">
          <mxGeometry x="140" y="341" width="50" height="50" as="geometry" />
        </mxCell>
        <mxCell id="l-R7N4XkeBFulMvIP0YO-16" value="&lt;b&gt;Inputs:&lt;/b&gt;&lt;br&gt;&lt;div style=&quot;&quot;&gt;&lt;ul&gt;&lt;li style=&quot;text-align: left;&quot;&gt;&lt;span style=&quot;background-color: transparent; color: light-dark(rgb(0, 0, 0), rgb(255, 255, 255));&quot;&gt;UserPrompt&lt;/span&gt;&lt;/li&gt;&lt;li style=&quot;text-align: left;&quot;&gt;&lt;span style=&quot;background-color: transparent; color: light-dark(rgb(0, 0, 0), rgb(255, 255, 255));&quot;&gt;CorrelationId&lt;/span&gt;&lt;/li&gt;&lt;li style=&quot;text-align: left;&quot;&gt;&lt;span style=&quot;background-color: transparent; color: light-dark(rgb(0, 0, 0), rgb(255, 255, 255));&quot;&gt;SessionId&lt;/span&gt;&lt;/li&gt;&lt;li style=&quot;text-align: left;&quot;&gt;&lt;span style=&quot;background-color: transparent; color: light-dark(rgb(0, 0, 0), rgb(255, 255, 255));&quot;&gt;SystemId&lt;/span&gt;&lt;/li&gt;&lt;li style=&quot;text-align: left;&quot;&gt;&lt;span style=&quot;background-color: transparent; color: light-dark(rgb(0, 0, 0), rgb(255, 255, 255));&quot;&gt;TenantId&lt;/span&gt;&lt;/li&gt;&lt;/ul&gt;&lt;/div&gt;" style="ellipse;whiteSpace=wrap;html=1;fillColor=#dae8fc;strokeColor=#6c8ebf;" vertex="1" parent="1">
          <mxGeometry x="240" y="301" width="140" height="130" as="geometry" />
        </mxCell>
        <mxCell id="l-R7N4XkeBFulMvIP0YO-18" value="" style="sketch=0;aspect=fixed;html=1;align=center;fontSize=12;image=img/lib/mscae/Service_Bus_Relay.svg;shape=image;labelBackgroundColor=default;verticalAlign=top;verticalLabelPosition=bottom;points=[];" vertex="1" parent="1">
          <mxGeometry x="570" y="310" width="50" height="50" as="geometry" />
        </mxCell>
        <mxCell id="l-R7N4XkeBFulMvIP0YO-20" value="PM Copilot" style="ellipse;whiteSpace=wrap;html=1;aspect=fixed;" vertex="1" parent="1">
          <mxGeometry x="692" y="260" width="70" height="70" as="geometry" />
        </mxCell>
        <mxCell id="l-R7N4XkeBFulMvIP0YO-21" value="OM Copilot" style="ellipse;whiteSpace=wrap;html=1;aspect=fixed;" vertex="1" parent="1">
          <mxGeometry x="692" y="360" width="70" height="70" as="geometry" />
        </mxCell>
        <mxCell id="l-R7N4XkeBFulMvIP0YO-23" style="edgeStyle=orthogonalEdgeStyle;rounded=0;orthogonalLoop=1;jettySize=auto;html=1;entryX=0;entryY=0.5;entryDx=0;entryDy=0;exitX=0.973;exitY=0.747;exitDx=0;exitDy=0;exitPerimeter=0;" edge="1" parent="1" source="l-R7N4XkeBFulMvIP0YO-18" target="l-R7N4XkeBFulMvIP0YO-21">
          <mxGeometry relative="1" as="geometry">
            <mxPoint x="632" y="345" as="sourcePoint" />
            <mxPoint x="695" y="265" as="targetPoint" />
          </mxGeometry>
        </mxCell>
        <mxCell id="l-R7N4XkeBFulMvIP0YO-24" style="edgeStyle=orthogonalEdgeStyle;rounded=0;orthogonalLoop=1;jettySize=auto;html=1;entryX=0;entryY=0.5;entryDx=0;entryDy=0;exitX=0.973;exitY=0.747;exitDx=0;exitDy=0;exitPerimeter=0;" edge="1" parent="1" target="l-R7N4XkeBFulMvIP0YO-20">
          <mxGeometry relative="1" as="geometry">
            <mxPoint x="620" y="340" as="sourcePoint" />
            <mxPoint x="693" y="388" as="targetPoint" />
          </mxGeometry>
        </mxCell>
        <mxCell id="l-R7N4XkeBFulMvIP0YO-25" value="&lt;font style=&quot;font-size: 10px;&quot;&gt;DAPR&lt;br&gt;(service &lt;br&gt;Communication)&lt;/font&gt;" style="rhombus;whiteSpace=wrap;html=1;" vertex="1" parent="1">
          <mxGeometry x="420" y="295" width="120" height="89" as="geometry" />
        </mxCell>
      </root>
    </mxGraphModel>
  </diagram>
</mxfile>
